<?xml version="1.0" encoding="utf-8"?>
<svg version="1.1" xmlns="http://www.w3.org/2000/svg" xmlns:xlink="http://www.w3.org/1999/xlink" x="0px" y="0px"
	 viewBox="0 0 418.1 422.7" style="enable-background:new 0 0 418.1 422.7;" xml:space="preserve">
<style type="text/css">
	.st1{fill-rule:evenodd;clip-rule:evenodd;fill:#ffffff;}
</style>
<g id="WhatsApp_Logo">
	<g id="WA_Logo">
		<g>
			<path class="st1" d="M356.8,61C317.4,21.6,265-0.1,209.2-0.1C94.3-0.1,0.7,93.4,0.7,208.4c0,36.8,9.6,72.6,27.8,104.3L-1.1,420.8
				l110.6-29c30.5,16.6,64.8,25.4,99.7,25.4h0.1c0,0,0,0,0,0c114.9,0,208.5-93.6,208.6-208.6C417.8,152.9,396.1,100.5,356.8,61z
				 M209.2,381.9L209.2,381.9c-31.2,0-61.7-8.4-88.3-24.2l-6.3-3.8L49,371.2l17.5-64l-4.1-6.6c-17.4-27.6-26.5-59.5-26.5-92.2
				c0-95.6,77.8-173.3,173.4-173.3c46.3,0,89.8,18.1,122.6,50.8c32.7,32.8,50.7,76.3,50.7,122.6
				C382.5,304.2,304.8,381.9,209.2,381.9z M304.3,252.1c-5.2-2.6-30.8-15.2-35.6-17c-4.8-1.7-8.3-2.6-11.7,2.6
				c-3.5,5.2-13.5,17-16.5,20.4c-3,3.5-6.1,3.9-11.3,1.3c-5.2-2.6-22-8.1-41.9-25.9c-15.5-13.8-25.9-30.9-29-36.1
				c-3-5.2-0.3-8,2.3-10.6c2.3-2.3,5.2-6.1,7.8-9.1c2.6-3,3.5-5.2,5.2-8.7c1.7-3.5,0.9-6.5-0.4-9.1c-1.3-2.6-11.7-28.3-16.1-38.7
				c-4.2-10.2-8.5-8.8-11.7-8.9c-3-0.2-6.5-0.2-10-0.2c-3.5,0-9.1,1.3-13.9,6.5c-4.8,5.2-18.2,17.8-18.2,43.5
				c0,25.7,18.7,50.4,21.3,53.9c2.6,3.5,36.7,56.1,89,78.7c12.4,5.4,22.1,8.6,29.7,11c12.5,4,23.8,3.4,32.8,2.1
				c10-1.5,30.8-12.6,35.2-24.8c4.3-12.2,4.3-22.6,3-24.8C313,256,309.5,254.7,304.3,252.1z"/>
		</g>
	</g>
</g>
</svg>
